<mxfile host="app.diagrams.net" modified="2024-06-08T07:41:21.556Z" agent="Mozilla/5.0 (Windows NT 10.0; Win64; x64) AppleWebKit/537.36 (KHTML, like Gecko) Chrome/125.0.0.0 Safari/537.36" version="24.4.13" etag="Y5yGRx1C4d6-ISgcyux2" type="github">
  <diagram name="Страница — 1" id="4GI0fiBOzZwn5PyIzwcm">
    <mxGraphModel>
      <root>
        <mxCell id="0" />
        <mxCell id="1" parent="0" />
      </root>
    </mxGraphModel>
  </diagram>
</mxfile>
